<svg width="650" height="252" viewBox="0 0 650 252" fill="none" xmlns="http://www.w3.org/2000/svg">
<rect width="650" height="251.042" rx="10.4167" fill="white"/>
<path d="M34.4062 42.1918C32.8535 42.1918 31.4351 41.826 30.151 41.0944C28.867 40.3628 27.8592 39.355 27.1276 38.071C26.396 36.787 26.0302 35.3686 26.0302 33.8158C26.0302 32.263 26.396 30.8446 27.1276 29.5606C27.8592 28.2766 28.867 27.2687 30.151 26.5371C31.4351 25.8055 32.8535 25.4397 34.4062 25.4397C35.6156 25.4397 36.713 25.6637 37.6984 26.1116C38.6988 26.5595 39.5797 27.209 40.3411 28.0601L38.5495 29.7845C37.997 29.1276 37.3849 28.6424 36.713 28.3288C36.0411 28.0003 35.2722 27.8361 34.4062 27.8361C33.3312 27.8361 32.3458 28.0825 31.45 28.5752C30.5691 29.0679 29.8674 29.7696 29.3448 30.6804C28.8222 31.5762 28.5609 32.6213 28.5609 33.8158C28.5609 35.0102 28.8222 36.0628 29.3448 36.9736C29.8674 37.8694 30.5691 38.5637 31.45 39.0564C32.3458 39.5491 33.3312 39.7955 34.4062 39.7955C36.1979 39.7955 37.7208 39.0489 38.975 37.5559L40.7891 39.3028C40.0127 40.2135 39.0795 40.9227 37.9896 41.4304C36.8997 41.938 35.7052 42.1918 34.4062 42.1918ZM48.3256 42.1918C47.176 42.1918 46.1457 41.9305 45.235 41.408C44.3242 40.8705 43.615 40.1389 43.1074 39.2132C42.5997 38.2875 42.3459 37.2573 42.3459 36.1226C42.3459 34.9878 42.5997 33.9576 43.1074 33.0319C43.615 32.1062 44.3242 31.3821 45.235 30.8595C46.1457 30.322 47.176 30.0533 48.3256 30.0533C49.4753 30.0533 50.5055 30.322 51.4162 30.8595C52.327 31.397 53.0362 32.1286 53.5438 33.0543C54.0515 33.98 54.3053 35.0028 54.3053 36.1226C54.3053 37.2573 54.0515 38.2875 53.5438 39.2132C53.0362 40.1389 52.327 40.8705 51.4162 41.408C50.5055 41.9305 49.4753 42.1918 48.3256 42.1918ZM48.3256 39.9299C48.9527 39.9299 49.535 39.7805 50.0725 39.4819C50.61 39.1684 51.0355 38.7279 51.349 38.1606C51.6775 37.5783 51.8418 36.8989 51.8418 36.1226C51.8418 35.3462 51.6775 34.6743 51.349 34.1069C51.0355 33.5396 50.61 33.1066 50.0725 32.808C49.535 32.4944 48.9527 32.3377 48.3256 32.3377C47.6985 32.3377 47.1162 32.4944 46.5787 32.808C46.0412 33.1066 45.6082 33.5396 45.2798 34.1069C44.9662 34.6743 44.8095 35.3462 44.8095 36.1226C44.8095 36.8989 44.9662 37.5783 45.2798 38.1606C45.6082 38.7279 46.0412 39.1684 46.5787 39.4819C47.1162 39.7805 47.6985 39.9299 48.3256 39.9299ZM56.6913 25.7981H59.1549V41.8335H56.6913V25.7981ZM67.5169 42.1918C66.3673 42.1918 65.3371 41.9305 64.4263 41.408C63.5155 40.8705 62.8063 40.1389 62.2987 39.2132C61.791 38.2875 61.5372 37.2573 61.5372 36.1226C61.5372 34.9878 61.791 33.9576 62.2987 33.0319C62.8063 32.1062 63.5155 31.3821 64.4263 30.8595C65.3371 30.322 66.3673 30.0533 67.5169 30.0533C68.6666 30.0533 69.6968 30.322 70.6075 30.8595C71.5183 31.397 72.2275 32.1286 72.7351 33.0543C73.2428 33.98 73.4966 35.0028 73.4966 36.1226C73.4966 37.2573 73.2428 38.2875 72.7351 39.2132C72.2275 40.1389 71.5183 40.8705 70.6075 41.408C69.6968 41.9305 68.6666 42.1918 67.5169 42.1918ZM67.5169 39.9299C68.144 39.9299 68.7263 39.7805 69.2638 39.4819C69.8013 39.1684 70.2268 38.7279 70.5404 38.1606C70.8688 37.5783 71.0331 36.8989 71.0331 36.1226C71.0331 35.3462 70.8688 34.6743 70.5404 34.1069C70.2268 33.5396 69.8013 33.1066 69.2638 32.808C68.7263 32.4944 68.144 32.3377 67.5169 32.3377C66.8898 32.3377 66.3075 32.4944 65.77 32.808C65.2325 33.1066 64.7996 33.5396 64.4711 34.1069C64.1575 34.6743 64.0008 35.3462 64.0008 36.1226C64.0008 36.8989 64.1575 37.5783 64.4711 38.1606C64.7996 38.7279 65.2325 39.1684 65.77 39.4819C66.3075 39.7805 66.8898 39.9299 67.5169 39.9299ZM75.7733 30.4116H78.1248V32.0913H78.2368C78.4906 31.509 78.9311 31.0312 79.5582 30.658C80.1853 30.2698 80.8497 30.0757 81.5514 30.0757C82.1038 30.0757 82.5667 30.1503 82.9399 30.2996V32.8528C82.283 32.6139 81.6932 32.4944 81.1707 32.4944C80.6033 32.4944 80.0957 32.6437 79.6478 32.9424C79.2148 33.241 78.8714 33.6441 78.6175 34.1517C78.3637 34.6444 78.2368 35.1894 78.2368 35.7866V41.8335H75.7733V30.4116Z" fill="#72C3C4" fill-opacity="0.8"/>
<path d="M302.966 190.675H301.416L301.566 189.8H303.104L303.366 188.037H301.804L301.941 187.162H303.491L303.854 184.7H304.779L304.416 187.162H306.191L306.554 184.7H307.479L307.116 187.162H308.666L308.529 188.037H306.991L306.729 189.8H308.291L308.154 190.675H306.591L306.204 193.25H305.279L305.666 190.675H303.891L303.504 193.25H302.579L302.966 190.675ZM305.804 189.8L306.066 188.037H304.291L304.029 189.8H305.804ZM310.049 184.3H315.224V185.312H311.099V188.375H314.824V189.375H311.099V193.25H310.049V184.3ZM316.689 184.3H321.864V185.312H317.739V188.375H321.464V189.375H317.739V193.25H316.689V184.3ZM323.33 184.3H328.505V185.312H324.38V188.375H328.105V189.375H324.38V193.25H323.33V184.3ZM329.971 184.3H335.146V185.312H331.021V188.375H334.746V189.375H331.021V193.25H329.971V184.3ZM336.611 184.3H341.786V185.312H337.661V188.375H341.386V189.375H337.661V193.25H336.611V184.3ZM343.252 184.3H348.427V185.312H344.302V188.375H348.027V189.375H344.302V193.25H343.252V184.3Z" fill="#232323" fill-opacity="0.8"/>
<path d="M127.445 190.675H125.895L126.045 189.8H127.582L127.845 188.037H126.282L126.42 187.162H127.97L128.332 184.7H129.257L128.895 187.162H130.67L131.032 184.7H131.957L131.595 187.162H133.145L133.007 188.037H131.47L131.207 189.8H132.77L132.632 190.675H131.07L130.682 193.25H129.757L130.145 190.675H128.37L127.982 193.25H127.057L127.445 190.675ZM130.282 189.8L130.545 188.037H128.77L128.507 189.8H130.282ZM137.552 193.45C136.877 193.45 136.277 193.254 135.752 192.862C135.236 192.462 134.836 191.925 134.552 191.25C134.277 190.567 134.14 189.808 134.14 188.975C134.14 188.142 134.277 187.387 134.552 186.712C134.836 186.029 135.236 185.492 135.752 185.1C136.269 184.7 136.869 184.5 137.552 184.5C138.236 184.5 138.836 184.7 139.352 185.1C139.869 185.492 140.265 186.029 140.54 186.712C140.823 187.387 140.965 188.142 140.965 188.975C140.965 189.808 140.823 190.567 140.54 191.25C140.265 191.925 139.865 192.462 139.34 192.862C138.823 193.254 138.227 193.45 137.552 193.45ZM137.552 192.437C138.027 192.437 138.44 192.287 138.79 191.987C139.14 191.679 139.411 191.262 139.602 190.737C139.794 190.212 139.89 189.625 139.89 188.975C139.89 188.325 139.794 187.737 139.602 187.212C139.411 186.687 139.14 186.275 138.79 185.975C138.44 185.667 138.027 185.512 137.552 185.512C137.077 185.512 136.665 185.667 136.315 185.975C135.965 186.275 135.694 186.687 135.502 187.212C135.311 187.737 135.215 188.325 135.215 188.975C135.215 189.625 135.311 190.212 135.502 190.737C135.694 191.262 135.965 191.679 136.315 191.987C136.665 192.287 137.077 192.437 137.552 192.437ZM145.159 184.3H146.359L149.759 193.25H148.596L147.696 190.787H143.834L142.934 193.25H141.771L145.159 184.3ZM147.334 189.787L146.146 186.562L145.784 185.6H145.734L145.384 186.562L144.196 189.787H147.334ZM153.971 193.45C153.296 193.45 152.696 193.254 152.171 192.862C151.654 192.462 151.254 191.925 150.971 191.25C150.696 190.567 150.558 189.808 150.558 188.975C150.558 188.142 150.696 187.387 150.971 186.712C151.254 186.029 151.654 185.492 152.171 185.1C152.687 184.7 153.287 184.5 153.971 184.5C154.654 184.5 155.254 184.7 155.771 185.1C156.287 185.492 156.683 186.029 156.958 186.712C157.242 187.387 157.383 188.142 157.383 188.975C157.383 189.808 157.242 190.567 156.958 191.25C156.683 191.925 156.283 192.462 155.758 192.862C155.242 193.254 154.646 193.45 153.971 193.45ZM153.971 192.437C154.446 192.437 154.858 192.287 155.208 191.987C155.558 191.679 155.829 191.262 156.021 190.737C156.212 190.212 156.308 189.625 156.308 188.975C156.308 188.325 156.212 187.737 156.021 187.212C155.829 186.687 155.558 186.275 155.208 185.975C154.858 185.667 154.446 185.512 153.971 185.512C153.496 185.512 153.083 185.667 152.733 185.975C152.383 186.275 152.112 186.687 151.921 187.212C151.729 187.737 151.633 188.325 151.633 188.975C151.633 189.625 151.729 190.212 151.921 190.737C152.112 191.262 152.383 191.679 152.733 191.987C153.083 192.287 153.496 192.437 153.971 192.437ZM161.577 184.3H162.777L166.177 193.25H165.015L164.115 190.787H160.252L159.352 193.25H158.19L161.577 184.3ZM163.752 189.787L162.565 186.562L162.202 185.6H162.152L161.802 186.562L160.615 189.787H163.752ZM170.389 193.45C169.714 193.45 169.114 193.254 168.589 192.862C168.073 192.462 167.673 191.925 167.389 191.25C167.114 190.567 166.977 189.808 166.977 188.975C166.977 188.142 167.114 187.387 167.389 186.712C167.673 186.029 168.073 185.492 168.589 185.1C169.106 184.7 169.706 184.5 170.389 184.5C171.073 184.5 171.673 184.7 172.189 185.1C172.706 185.492 173.102 186.029 173.377 186.712C173.66 187.387 173.802 188.142 173.802 188.975C173.802 189.808 173.66 190.567 173.377 191.25C173.102 191.925 172.702 192.462 172.177 192.862C171.66 193.254 171.064 193.45 170.389 193.45ZM170.389 192.437C170.864 192.437 171.277 192.287 171.627 191.987C171.977 191.679 172.248 191.262 172.439 190.737C172.631 190.212 172.727 189.625 172.727 188.975C172.727 188.325 172.631 187.737 172.439 187.212C172.248 186.687 171.977 186.275 171.627 185.975C171.277 185.667 170.864 185.512 170.389 185.512C169.914 185.512 169.502 185.667 169.152 185.975C168.802 186.275 168.531 186.687 168.339 187.212C168.148 187.737 168.052 188.325 168.052 188.975C168.052 189.625 168.148 190.212 168.339 190.737C168.531 191.262 168.802 191.679 169.152 191.987C169.502 192.287 169.914 192.437 170.389 192.437ZM177.996 184.3H179.196L182.596 193.25H181.433L180.533 190.787H176.671L175.771 193.25H174.608L177.996 184.3ZM180.171 189.787L178.983 186.562L178.621 185.6H178.571L178.221 186.562L177.033 189.787H180.171Z" fill="#232323" fill-opacity="0.8"/>
<path d="M471.195 190.675H469.645L469.795 189.8H471.332L471.595 188.037H470.032L470.17 187.162H471.72L472.082 184.7H473.007L472.645 187.162H474.42L474.782 184.7H475.707L475.345 187.162H476.895L476.757 188.037H475.22L474.957 189.8H476.52L476.382 190.675H474.82L474.432 193.25H473.507L473.895 190.675H472.12L471.732 193.25H470.807L471.195 190.675ZM474.032 189.8L474.295 188.037H472.52L472.257 189.8H474.032ZM478.24 192.962L482.227 185.712H477.84V184.7H483.327V185.787L479.177 193.45L478.24 192.962ZM489.094 193.45C488.227 193.45 487.439 193.246 486.731 192.838C486.023 192.429 485.464 191.871 485.056 191.162C484.656 190.446 484.456 189.65 484.456 188.775C484.456 187.9 484.656 187.108 485.056 186.4C485.464 185.683 486.023 185.121 486.731 184.712C487.439 184.304 488.227 184.1 489.094 184.1C489.76 184.1 490.369 184.229 490.919 184.487C491.477 184.737 491.96 185.096 492.369 185.562L491.606 186.3C491.264 185.892 490.889 185.592 490.481 185.4C490.081 185.208 489.619 185.112 489.094 185.112C488.444 185.112 487.848 185.267 487.306 185.575C486.764 185.875 486.331 186.304 486.006 186.862C485.689 187.412 485.531 188.05 485.531 188.775C485.531 189.5 485.689 190.142 486.006 190.7C486.331 191.25 486.764 191.679 487.306 191.987C487.848 192.287 488.444 192.437 489.094 192.437C490.177 192.437 491.098 191.992 491.856 191.1L492.631 191.85C492.214 192.342 491.702 192.733 491.094 193.025C490.485 193.308 489.819 193.45 489.094 193.45ZM498.163 193.45C497.297 193.45 496.509 193.246 495.801 192.838C495.093 192.429 494.534 191.871 494.126 191.162C493.726 190.446 493.526 189.65 493.526 188.775C493.526 187.9 493.726 187.108 494.126 186.4C494.534 185.683 495.093 185.121 495.801 184.712C496.509 184.304 497.297 184.1 498.163 184.1C498.83 184.1 499.438 184.229 499.988 184.487C500.547 184.737 501.03 185.096 501.438 185.562L500.676 186.3C500.334 185.892 499.959 185.592 499.551 185.4C499.151 185.208 498.688 185.112 498.163 185.112C497.513 185.112 496.918 185.267 496.376 185.575C495.834 185.875 495.401 186.304 495.076 186.862C494.759 187.412 494.601 188.05 494.601 188.775C494.601 189.5 494.759 190.142 495.076 190.7C495.401 191.25 495.834 191.679 496.376 191.987C496.918 192.287 497.513 192.437 498.163 192.437C499.247 192.437 500.168 191.992 500.926 191.1L501.701 191.85C501.284 192.342 500.772 192.733 500.163 193.025C499.555 193.308 498.888 193.45 498.163 193.45ZM503.229 184.3H506.441C506.891 184.3 507.312 184.404 507.704 184.612C508.104 184.821 508.42 185.108 508.654 185.475C508.887 185.842 509.004 186.254 509.004 186.712C509.004 187.146 508.891 187.525 508.666 187.85C508.449 188.175 508.154 188.425 507.779 188.6V188.65C508.229 188.8 508.595 189.058 508.879 189.425C509.162 189.792 509.304 190.221 509.304 190.712C509.304 191.196 509.179 191.633 508.929 192.025C508.687 192.408 508.358 192.708 507.941 192.925C507.533 193.142 507.091 193.25 506.616 193.25H503.229V184.3ZM506.441 188.175C506.741 188.175 507.004 188.104 507.229 187.962C507.462 187.821 507.641 187.642 507.766 187.425C507.891 187.2 507.954 186.971 507.954 186.737C507.954 186.512 507.891 186.292 507.766 186.075C507.649 185.85 507.479 185.667 507.254 185.525C507.037 185.383 506.783 185.312 506.491 185.312H504.279V188.175H506.441ZM506.679 192.237C506.979 192.237 507.245 192.162 507.479 192.012C507.72 191.862 507.904 191.671 508.029 191.437C508.162 191.196 508.229 190.95 508.229 190.7C508.229 190.45 508.162 190.208 508.029 189.975C507.895 189.733 507.708 189.542 507.466 189.4C507.224 189.25 506.945 189.175 506.629 189.175H504.279V192.237H506.679ZM515.009 193.45C514.142 193.45 513.355 193.246 512.647 192.838C511.938 192.429 511.38 191.871 510.972 191.162C510.572 190.446 510.372 189.65 510.372 188.775C510.372 187.9 510.572 187.108 510.972 186.4C511.38 185.683 511.938 185.121 512.647 184.712C513.355 184.304 514.142 184.1 515.009 184.1C515.676 184.1 516.284 184.229 516.834 184.487C517.392 184.737 517.876 185.096 518.284 185.562L517.522 186.3C517.18 185.892 516.805 185.592 516.397 185.4C515.997 185.208 515.534 185.112 515.009 185.112C514.359 185.112 513.763 185.267 513.222 185.575C512.68 185.875 512.247 186.304 511.922 186.862C511.605 187.412 511.447 188.05 511.447 188.775C511.447 189.5 511.605 190.142 511.922 190.7C512.247 191.25 512.68 191.679 513.222 191.987C513.763 192.287 514.359 192.437 515.009 192.437C516.092 192.437 517.013 191.992 517.772 191.1L518.547 191.85C518.13 192.342 517.617 192.733 517.009 193.025C516.401 193.308 515.734 193.45 515.009 193.45ZM520.074 184.3H522.774C523.691 184.3 524.491 184.492 525.174 184.875C525.858 185.25 526.383 185.775 526.749 186.45C527.116 187.125 527.299 187.9 527.299 188.775C527.299 189.65 527.116 190.425 526.749 191.1C526.383 191.775 525.858 192.304 525.174 192.687C524.491 193.062 523.691 193.25 522.774 193.25H520.074V184.3ZM522.774 192.237C523.833 192.237 524.67 191.933 525.287 191.325C525.912 190.717 526.224 189.867 526.224 188.775C526.224 187.683 525.912 186.833 525.287 186.225C524.67 185.617 523.833 185.312 522.774 185.312H521.124V192.237H522.774Z" fill="#232323" fill-opacity="0.8"/>
<circle cx="325.252" cy="119.356" r="36.543" fill="#F1F1F1"/>
<g filter="url(#filter0_d_658_6054)">
<circle cx="325.035" cy="119.573" r="29.3649" fill="white"/>
</g>
<circle cx="154.25" cy="119.876" r="36.543" fill="#F1F1F1"/>
<g filter="url(#filter1_d_658_6054)">
<circle cx="154.033" cy="120.093" r="29.3649" fill="#0A0A0A"/>
</g>
<circle cx="496.256" cy="119.356" r="36.543" fill="#F1F1F1"/>
<g filter="url(#filter2_d_658_6054)">
<circle cx="496.039" cy="119.573" r="29.3649" fill="#7CCBCD"/>
</g>
<defs>
<filter id="filter0_d_658_6054" x="293.066" y="89.6872" width="63.9388" height="63.9383" filterUnits="userSpaceOnUse" color-interpolation-filters="sRGB">
<feFlood flood-opacity="0" result="BackgroundImageFix"/>
<feColorMatrix in="SourceAlpha" type="matrix" values="0 0 0 0 0 0 0 0 0 0 0 0 0 0 0 0 0 0 127 0" result="hardAlpha"/>
<feOffset dy="2.08333"/>
<feGaussianBlur stdDeviation="1.30208"/>
<feComposite in2="hardAlpha" operator="out"/>
<feColorMatrix type="matrix" values="0 0 0 0 0.1625 0 0 0 0 0.1625 0 0 0 0 0.1625 0 0 0 0.12 0"/>
<feBlend mode="normal" in2="BackgroundImageFix" result="effect1_dropShadow_658_6054"/>
<feBlend mode="normal" in="SourceGraphic" in2="effect1_dropShadow_658_6054" result="shape"/>
</filter>
<filter id="filter1_d_658_6054" x="122.064" y="90.2072" width="63.9388" height="63.9383" filterUnits="userSpaceOnUse" color-interpolation-filters="sRGB">
<feFlood flood-opacity="0" result="BackgroundImageFix"/>
<feColorMatrix in="SourceAlpha" type="matrix" values="0 0 0 0 0 0 0 0 0 0 0 0 0 0 0 0 0 0 127 0" result="hardAlpha"/>
<feOffset dy="2.08333"/>
<feGaussianBlur stdDeviation="1.30208"/>
<feComposite in2="hardAlpha" operator="out"/>
<feColorMatrix type="matrix" values="0 0 0 0 0.1625 0 0 0 0 0.1625 0 0 0 0 0.1625 0 0 0 0.32 0"/>
<feBlend mode="normal" in2="BackgroundImageFix" result="effect1_dropShadow_658_6054"/>
<feBlend mode="normal" in="SourceGraphic" in2="effect1_dropShadow_658_6054" result="shape"/>
</filter>
<filter id="filter2_d_658_6054" x="464.07" y="89.6872" width="63.9388" height="63.9383" filterUnits="userSpaceOnUse" color-interpolation-filters="sRGB">
<feFlood flood-opacity="0" result="BackgroundImageFix"/>
<feColorMatrix in="SourceAlpha" type="matrix" values="0 0 0 0 0 0 0 0 0 0 0 0 0 0 0 0 0 0 127 0" result="hardAlpha"/>
<feOffset dy="2.08333"/>
<feGaussianBlur stdDeviation="1.30208"/>
<feComposite in2="hardAlpha" operator="out"/>
<feColorMatrix type="matrix" values="0 0 0 0 0.1625 0 0 0 0 0.1625 0 0 0 0 0.1625 0 0 0 0.12 0"/>
<feBlend mode="normal" in2="BackgroundImageFix" result="effect1_dropShadow_658_6054"/>
<feBlend mode="normal" in="SourceGraphic" in2="effect1_dropShadow_658_6054" result="shape"/>
</filter>
</defs>
</svg>
