<svg width="650" height="252" viewBox="0 0 650 252" fill="none" xmlns="http://www.w3.org/2000/svg">
<rect width="650" height="251.042" rx="10.4327" fill="white"/>
<path d="M30.1307 29.2057H25.6447V26.8056H37.129V29.2057H32.6429V42.8657H30.1307V29.2057ZM41.5446 42.2377L36.7894 31.4263H39.5483L42.7783 39.2096H42.868L46.0082 31.4263H48.7223L41.6568 47.7107H39.0548L41.5446 42.2377ZM50.4685 31.4263H52.8237V32.9291H52.9359C53.2648 32.4057 53.7508 31.9646 54.3938 31.6057C55.0368 31.2468 55.7621 31.0674 56.5696 31.0674C57.6014 31.0674 58.536 31.3291 59.3734 31.8525C60.2107 32.3758 60.8687 33.1011 61.3472 34.0282C61.8407 34.9404 62.0874 35.9796 62.0874 37.146C62.0874 38.3124 61.8407 39.3591 61.3472 40.2862C60.8687 41.1984 60.2107 41.9162 59.3734 42.4395C58.536 42.9629 57.6014 43.2246 56.5696 43.2246C55.7621 43.2246 55.0368 43.0452 54.3938 42.6863C53.7508 42.3274 53.2648 41.8937 52.9359 41.3853H52.8237L52.9359 42.9779V47.7107H50.4685V31.4263ZM56.2107 40.9591C56.8088 40.9591 57.3696 40.8021 57.893 40.4881C58.4163 40.1741 58.835 39.7255 59.149 39.1423C59.4631 38.5591 59.6201 37.8937 59.6201 37.146C59.6201 36.3983 59.4631 35.7404 59.149 35.1721C58.835 34.5889 58.4163 34.1403 57.893 33.8263C57.3696 33.5123 56.8088 33.3553 56.2107 33.3553C55.6125 33.3553 55.0518 33.5123 54.5284 33.8263C54.02 34.1403 53.6088 34.5889 53.2947 35.1721C52.9807 35.7404 52.8237 36.3983 52.8237 37.146C52.8237 37.8937 52.9807 38.5591 53.2947 39.1423C53.6088 39.7255 54.02 40.1741 54.5284 40.4881C55.0518 40.8021 55.6125 40.9591 56.2107 40.9591ZM69.9214 43.2246C68.7699 43.2246 67.7382 42.9629 66.826 42.4395C65.9138 41.9012 65.2035 41.1685 64.6951 40.2414C64.1867 39.3143 63.9325 38.2825 63.9325 37.146C63.9325 36.0095 64.1867 34.9777 64.6951 34.0506C65.2035 33.1235 65.9138 32.3983 66.826 31.8749C67.7382 31.3366 68.7699 31.0674 69.9214 31.0674C71.0728 31.0674 72.1046 31.3366 73.0167 31.8749C73.9289 32.4132 74.6392 33.1459 75.1476 34.073C75.656 35.0002 75.9103 36.0245 75.9103 37.146C75.9103 38.2825 75.656 39.3143 75.1476 40.2414C74.6392 41.1685 73.9289 41.9012 73.0167 42.4395C72.1046 42.9629 71.0728 43.2246 69.9214 43.2246ZM69.9214 40.9591C70.5494 40.9591 71.1326 40.8096 71.6709 40.5105C72.2093 40.1965 72.6354 39.7554 72.9495 39.1872C73.2784 38.604 73.4429 37.9236 73.4429 37.146C73.4429 36.3684 73.2784 35.6955 72.9495 35.1273C72.6354 34.559 72.2093 34.1254 71.6709 33.8263C71.1326 33.5123 70.5494 33.3553 69.9214 33.3553C69.2933 33.3553 68.7101 33.5123 68.1718 33.8263C67.6335 34.1254 67.1998 34.559 66.8709 35.1273C66.5568 35.6955 66.3998 36.3684 66.3998 37.146C66.3998 37.9236 66.5568 38.604 66.8709 39.1872C67.1998 39.7554 67.6335 40.1965 68.1718 40.5105C68.7101 40.8096 69.2933 40.9591 69.9214 40.9591ZM83.5684 48.0695C82.1628 48.0695 80.9964 47.748 80.0693 47.105C79.1572 46.462 78.5441 45.6994 78.23 44.8172L80.5404 43.8527C80.7796 44.4508 81.1609 44.9293 81.6843 45.2882C82.2226 45.662 82.8507 45.849 83.5684 45.849C84.6152 45.849 85.4302 45.5349 86.0133 44.9069C86.6115 44.2938 86.9106 43.4265 86.9106 42.305V41.2507H86.776C86.4021 41.7891 85.9012 42.2152 85.2731 42.5293C84.6601 42.8283 83.9498 42.9779 83.1423 42.9779C82.1852 42.9779 81.2955 42.7311 80.4731 42.2377C79.6506 41.7442 78.9927 41.0489 78.4992 40.1517C78.0207 39.2395 77.7814 38.2002 77.7814 37.0338C77.7814 35.8675 78.0207 34.8357 78.4992 33.9385C78.9927 33.0263 79.6506 32.3235 80.4731 31.83C81.2955 31.3216 82.1852 31.0674 83.1423 31.0674C83.9348 31.0674 84.6451 31.2244 85.2731 31.5384C85.9012 31.8525 86.4021 32.2786 86.776 32.817H86.9106V31.4263H89.2657V42.2377C89.2657 43.4788 89.0265 44.533 88.548 45.4003C88.0695 46.2826 87.3965 46.948 86.5292 47.3966C85.6769 47.8452 84.69 48.0695 83.5684 48.0695ZM83.5909 40.7348C84.189 40.7348 84.7423 40.5928 85.2507 40.3087C85.7591 40.0096 86.1629 39.5834 86.462 39.0301C86.761 38.4619 86.9106 37.7965 86.9106 37.0338C86.9106 35.8675 86.5891 34.9628 85.9461 34.3198C85.318 33.6618 84.5329 33.3328 83.5909 33.3328C82.9778 33.3328 82.417 33.4824 81.9086 33.7815C81.4002 34.0656 80.9964 34.4843 80.6974 35.0376C80.3983 35.5908 80.2488 36.2563 80.2488 37.0338C80.2488 37.8114 80.3983 38.4769 80.6974 39.0301C80.9964 39.5834 81.4002 40.0096 81.9086 40.3087C82.417 40.5928 82.9778 40.7348 83.5909 40.7348ZM92.3899 31.4263H94.745V33.1085H94.8572C95.1114 32.5254 95.5525 32.0468 96.1806 31.673C96.8086 31.2842 97.4741 31.0898 98.1769 31.0898C98.7302 31.0898 99.1937 31.1646 99.5676 31.3141V33.8712C98.9096 33.6319 98.3189 33.5123 97.7956 33.5123C97.2273 33.5123 96.7189 33.6618 96.2703 33.9609C95.8366 34.26 95.4927 34.6637 95.2385 35.1721C94.9843 35.6656 94.8572 36.2114 94.8572 36.8095V42.8657H92.3899V31.4263ZM104.877 43.2246C104.055 43.2246 103.322 43.0676 102.679 42.7536C102.036 42.4246 101.535 41.9685 101.176 41.3853C100.817 40.7872 100.638 40.1143 100.638 39.3666C100.638 38.1853 101.079 37.2507 101.961 36.5628C102.858 35.8749 103.987 35.531 105.348 35.531C106.021 35.531 106.627 35.5983 107.165 35.7329C107.703 35.8525 108.13 35.9871 108.444 36.1366V35.5534C108.444 34.8506 108.182 34.2824 107.659 33.8487C107.135 33.4001 106.462 33.1758 105.64 33.1758C105.057 33.1758 104.503 33.3029 103.98 33.5572C103.472 33.8114 103.06 34.1628 102.746 34.6114L101.019 33.288C101.528 32.5852 102.186 32.0394 102.993 31.6506C103.801 31.2618 104.698 31.0674 105.685 31.0674C107.345 31.0674 108.623 31.4786 109.52 32.3011C110.418 33.1085 110.866 34.2525 110.866 35.7329V42.8657H108.444V41.4975H108.331C108.003 41.9909 107.539 42.4022 106.941 42.7311C106.343 43.0601 105.655 43.2246 104.877 43.2246ZM105.303 41.1835C105.902 41.1835 106.44 41.0414 106.918 40.7573C107.397 40.4732 107.771 40.0918 108.04 39.6133C108.309 39.1348 108.444 38.6189 108.444 38.0656C108.1 37.8712 107.696 37.7142 107.232 37.5946C106.784 37.475 106.313 37.4152 105.819 37.4152C104.892 37.4152 104.212 37.6021 103.778 37.9759C103.344 38.3348 103.128 38.8058 103.128 39.389C103.128 39.9124 103.33 40.3461 103.733 40.69C104.137 41.019 104.66 41.1835 105.303 41.1835ZM113.69 31.4263H116.045V32.9291H116.157C116.486 32.4057 116.972 31.9646 117.615 31.6057C118.258 31.2468 118.983 31.0674 119.791 31.0674C120.822 31.0674 121.757 31.3291 122.594 31.8525C123.432 32.3758 124.09 33.1011 124.568 34.0282C125.062 34.9404 125.308 35.9796 125.308 37.146C125.308 38.3124 125.062 39.3591 124.568 40.2862C124.09 41.1984 123.432 41.9162 122.594 42.4395C121.757 42.9629 120.822 43.2246 119.791 43.2246C118.983 43.2246 118.258 43.0452 117.615 42.6863C116.972 42.3274 116.486 41.8937 116.157 41.3853H116.045L116.157 42.9779V47.7107H113.69V31.4263ZM119.432 40.9591C120.03 40.9591 120.591 40.8021 121.114 40.4881C121.637 40.1741 122.056 39.7255 122.37 39.1423C122.684 38.5591 122.841 37.8937 122.841 37.146C122.841 36.3983 122.684 35.7404 122.37 35.1721C122.056 34.5889 121.637 34.1403 121.114 33.8263C120.591 33.5123 120.03 33.3553 119.432 33.3553C118.834 33.3553 118.273 33.5123 117.749 33.8263C117.241 34.1403 116.83 34.5889 116.516 35.1721C116.202 35.7404 116.045 36.3983 116.045 37.146C116.045 37.8937 116.202 38.5591 116.516 39.1423C116.83 39.7255 117.241 40.1741 117.749 40.4881C118.273 40.8021 118.834 40.9591 119.432 40.9591ZM127.562 26.8056H130.03V31.1795L129.918 32.9291H130.03C130.359 32.3908 130.845 31.9496 131.488 31.6057C132.146 31.2468 132.849 31.0674 133.596 31.0674C134.987 31.0674 136.049 31.4786 136.781 32.3011C137.514 33.1085 137.88 34.2151 137.88 35.6207V42.8657H135.413V35.9572C135.413 35.0899 135.181 34.4394 134.718 34.0058C134.269 33.5721 133.678 33.3553 132.946 33.3553C132.392 33.3553 131.892 33.5123 131.443 33.8263C131.009 34.1403 130.665 34.559 130.411 35.0824C130.157 35.5908 130.03 36.1366 130.03 36.7198V42.8657H127.562V26.8056ZM144.078 42.2377L139.323 31.4263H142.082L145.312 39.2096H145.402L148.542 31.4263H151.256L144.19 47.7107H141.588L144.078 42.2377Z" fill="#7CCBCD"/>
<path d="M116.416 95.1407C115.556 95.1407 114.763 94.9404 114.037 94.5398C113.319 94.1309 112.747 93.5717 112.322 92.8622C111.896 92.1445 111.683 91.3432 111.683 90.4585C111.683 89.5739 111.896 88.7768 112.322 88.0674C112.747 87.3496 113.319 86.7904 114.037 86.3898C114.763 85.9808 115.556 85.7764 116.416 85.7764C117.117 85.7764 117.755 85.9015 118.331 86.1519C118.915 86.394 119.416 86.7403 119.833 87.191L118.669 88.3303C118.369 88.0131 118.035 87.7753 117.667 87.6167C117.309 87.4581 116.887 87.3788 116.403 87.3788C115.852 87.3788 115.347 87.5082 114.888 87.7669C114.429 88.0173 114.062 88.3804 113.787 88.8561C113.519 89.3235 113.386 89.8576 113.386 90.4585C113.386 91.0595 113.524 91.5978 113.799 92.0735C114.074 92.5409 114.442 92.904 114.901 93.1627C115.368 93.4131 115.877 93.5383 116.428 93.5383C117.263 93.5383 117.947 93.2921 118.481 92.7996C118.648 92.6494 118.794 92.4574 118.919 92.2238C119.045 91.9901 119.136 91.7355 119.195 91.4601H116.378V90.0204H120.772C120.831 90.2541 120.86 90.517 120.86 90.8091C120.86 91.4017 120.768 91.9525 120.584 92.4616C120.409 92.9707 120.138 93.4173 119.771 93.8012C119.37 94.2352 118.886 94.569 118.318 94.8027C117.751 95.0281 117.117 95.1407 116.416 95.1407ZM125.245 95.1407C124.586 95.1407 123.998 94.9947 123.48 94.7026C122.963 94.4021 122.558 93.9973 122.266 93.4882C121.982 92.9707 121.84 92.3907 121.84 91.748C121.84 91.1137 121.982 90.5378 122.266 90.0204C122.558 89.5029 122.963 89.0981 123.48 88.806C123.998 88.5055 124.586 88.3553 125.245 88.3553C125.896 88.3553 126.48 88.5055 126.998 88.806C127.515 89.0981 127.916 89.5029 128.2 90.0204C128.492 90.5378 128.638 91.1137 128.638 91.748C128.638 92.3907 128.492 92.9707 128.2 93.4882C127.916 93.9973 127.515 94.4021 126.998 94.7026C126.48 94.9947 125.896 95.1407 125.245 95.1407ZM125.245 93.6259C125.562 93.6259 125.855 93.5508 126.122 93.4006C126.389 93.2503 126.602 93.0333 126.76 92.7496C126.919 92.4658 126.998 92.1319 126.998 91.748C126.998 91.3724 126.919 91.0428 126.76 90.759C126.602 90.4752 126.389 90.2582 126.122 90.108C125.855 89.9578 125.562 89.8827 125.245 89.8827C124.928 89.8827 124.636 89.9578 124.369 90.108C124.102 90.2582 123.885 90.4752 123.718 90.759C123.559 91.0428 123.48 91.3724 123.48 91.748C123.48 92.1236 123.559 92.4574 123.718 92.7496C123.885 93.0333 124.102 93.2503 124.369 93.4006C124.636 93.5508 124.928 93.6259 125.245 93.6259ZM132.948 95.1407C132.288 95.1407 131.7 94.9947 131.182 94.7026C130.665 94.4021 130.26 93.9973 129.968 93.4882C129.684 92.9707 129.542 92.3907 129.542 91.748C129.542 91.1137 129.684 90.5378 129.968 90.0204C130.26 89.5029 130.665 89.0981 131.182 88.806C131.7 88.5055 132.288 88.3553 132.948 88.3553C133.599 88.3553 134.183 88.5055 134.7 88.806C135.218 89.0981 135.618 89.5029 135.902 90.0204C136.194 90.5378 136.34 91.1137 136.34 91.748C136.34 92.3907 136.194 92.9707 135.902 93.4882C135.618 93.9973 135.218 94.4021 134.7 94.7026C134.183 94.9947 133.599 95.1407 132.948 95.1407ZM132.948 93.6259C133.265 93.6259 133.557 93.5508 133.824 93.4006C134.091 93.2503 134.304 93.0333 134.462 92.7496C134.621 92.4658 134.7 92.1319 134.7 91.748C134.7 91.3724 134.621 91.0428 134.462 90.759C134.304 90.4752 134.091 90.2582 133.824 90.108C133.557 89.9578 133.265 89.8827 132.948 89.8827C132.63 89.8827 132.338 89.9578 132.071 90.108C131.804 90.2582 131.587 90.4752 131.42 90.759C131.262 91.0428 131.182 91.3724 131.182 91.748C131.182 92.1236 131.262 92.4574 131.42 92.7496C131.587 93.0333 131.804 93.2503 132.071 93.4006C132.338 93.5508 132.63 93.6259 132.948 93.6259ZM140.537 97.8449C139.728 97.8449 139.056 97.6613 138.522 97.294C137.987 96.9352 137.628 96.5012 137.445 95.992L138.985 95.3661C139.118 95.6832 139.323 95.9336 139.598 96.1172C139.874 96.3009 140.187 96.3927 140.537 96.3927C141.055 96.3927 141.464 96.2341 141.764 95.9169C142.073 95.5998 142.227 95.1491 142.227 94.5649V94.0641H142.127C141.927 94.3479 141.664 94.5649 141.338 94.7151C141.013 94.8653 140.641 94.9404 140.224 94.9404C139.698 94.9404 139.206 94.8069 138.747 94.5398C138.296 94.2644 137.933 93.8805 137.658 93.388C137.382 92.8873 137.245 92.3072 137.245 91.6479C137.245 90.9885 137.382 90.4126 137.658 89.9202C137.933 89.4194 138.296 89.0355 138.747 88.7684C139.206 88.493 139.698 88.3553 140.224 88.3553C140.641 88.3553 141.013 88.4304 141.338 88.5807C141.664 88.7309 141.927 88.9479 142.127 89.2317H142.227V88.5556H143.805V94.5023C143.805 95.1866 143.671 95.7792 143.404 96.28C143.137 96.7808 142.757 97.1647 142.265 97.4318C141.772 97.7072 141.196 97.8449 140.537 97.8449ZM140.562 93.4506C141.021 93.4506 141.413 93.2921 141.739 92.9749C142.064 92.6494 142.227 92.2071 142.227 91.6479C142.227 91.072 142.064 90.6296 141.739 90.3208C141.422 90.0037 141.03 89.8451 140.562 89.8451C140.095 89.8451 139.698 90.0037 139.373 90.3208C139.047 90.638 138.885 91.0803 138.885 91.6479C138.885 92.2154 139.047 92.6578 139.373 92.9749C139.698 93.2921 140.095 93.4506 140.562 93.4506ZM145.407 85.9767H147.047V94.9404H145.407V85.9767ZM151.59 95.1407C150.956 95.1407 150.384 94.9947 149.875 94.7026C149.366 94.4104 148.966 94.0098 148.673 93.5007C148.39 92.9833 148.248 92.4032 148.248 91.7605C148.248 91.1513 148.39 90.5879 148.673 90.0704C148.957 89.5446 149.349 89.1273 149.85 88.8185C150.351 88.5097 150.91 88.3553 151.528 88.3553C152.187 88.3553 152.755 88.4972 153.23 88.781C153.706 89.0647 154.065 89.4528 154.307 89.9453C154.557 90.4377 154.683 90.9844 154.683 91.5853C154.683 91.7772 154.67 91.9609 154.645 92.1361H149.85C149.934 92.6452 150.134 93.0333 150.451 93.3004C150.777 93.5591 151.165 93.6885 151.615 93.6885C151.991 93.6885 152.312 93.6092 152.579 93.4506C152.855 93.2837 153.072 93.0625 153.23 92.7871L154.557 93.4381C153.906 94.5732 152.917 95.1407 151.59 95.1407ZM153.105 90.9718C153.089 90.7715 153.013 90.5754 152.88 90.3834C152.755 90.1831 152.575 90.0204 152.342 89.8952C152.116 89.7616 151.849 89.6949 151.54 89.6949C151.148 89.6949 150.81 89.8117 150.526 90.0454C150.251 90.2708 150.051 90.5796 149.925 90.9718H153.105ZM161.431 95.1407C160.646 95.1407 159.953 94.9196 159.353 94.4772C158.752 94.0349 158.33 93.4089 158.088 92.5993L159.678 91.9734C159.803 92.4491 160.016 92.8289 160.317 93.1126C160.617 93.3964 160.993 93.5383 161.443 93.5383C161.819 93.5383 162.14 93.4465 162.407 93.2629C162.674 93.0709 162.808 92.808 162.808 92.4741C162.808 92.1403 162.678 91.869 162.42 91.6604C162.169 91.4434 161.719 91.2139 161.068 90.9718L160.517 90.7715C159.941 90.5712 159.449 90.2666 159.04 89.8576C158.631 89.4403 158.426 88.9187 158.426 88.2927C158.426 87.8253 158.547 87.3997 158.789 87.0158C159.031 86.6318 159.373 86.3314 159.816 86.1144C160.258 85.889 160.759 85.7764 161.318 85.7764C162.128 85.7764 162.766 85.9683 163.233 86.3522C163.701 86.7278 164.022 87.1702 164.197 87.6793L162.708 88.3052C162.616 88.0298 162.453 87.8003 162.219 87.6167C161.994 87.4247 161.702 87.3287 161.343 87.3287C160.976 87.3287 160.671 87.4164 160.429 87.5916C160.195 87.7586 160.079 87.9797 160.079 88.2552C160.079 88.5222 160.191 88.7518 160.417 88.9437C160.642 89.1273 161.013 89.3068 161.531 89.482L162.094 89.6698C162.87 89.9369 163.463 90.2916 163.872 90.734C164.289 91.168 164.498 91.7397 164.498 92.4491C164.498 93.0333 164.348 93.5299 164.047 93.9389C163.747 94.3395 163.359 94.64 162.883 94.8403C162.416 95.0406 161.931 95.1407 161.431 95.1407ZM167.826 95.1407C167.15 95.1407 166.595 94.9446 166.161 94.5523C165.727 94.1517 165.51 93.6301 165.51 92.9874C165.51 92.5618 165.623 92.1862 165.848 91.8607C166.074 91.5352 166.382 91.2848 166.775 91.1095C167.167 90.9343 167.601 90.8466 168.077 90.8466C168.736 90.8466 169.299 90.9426 169.767 91.1346V90.8592C169.767 90.5086 169.633 90.2249 169.366 90.0079C169.108 89.7909 168.757 89.6824 168.315 89.6824C168.014 89.6824 167.722 89.7533 167.438 89.8952C167.163 90.0287 166.933 90.2082 166.75 90.4335L165.698 89.6072C166.007 89.2066 166.395 88.8978 166.862 88.6808C167.33 88.4638 167.839 88.3553 168.39 88.3553C169.366 88.3553 170.109 88.5807 170.618 89.0314C171.127 89.482 171.382 90.1414 171.382 91.0094V94.9404H169.767V94.2894H169.667C169.475 94.5398 169.22 94.7443 168.903 94.9029C168.594 95.0614 168.235 95.1407 167.826 95.1407ZM168.214 93.8638C168.69 93.8638 169.066 93.7135 169.341 93.4131C169.625 93.1043 169.767 92.7454 169.767 92.3364C169.341 92.1361 168.895 92.036 168.427 92.036C167.576 92.036 167.15 92.3531 167.15 92.9874C167.15 93.2462 167.242 93.459 167.426 93.6259C167.609 93.7845 167.872 93.8638 168.214 93.8638ZM172.891 88.5556H174.431V89.3569H174.531C174.723 89.048 174.994 88.806 175.345 88.6307C175.695 88.4471 176.075 88.3553 176.484 88.3553C177.252 88.3553 177.836 88.589 178.237 89.0564C178.637 89.5238 178.838 90.1623 178.838 90.9718V94.9404H177.198V91.1721C177.198 90.7632 177.093 90.446 176.885 90.2207C176.676 89.9953 176.384 89.8827 176.008 89.8827C175.566 89.8827 175.207 90.0538 174.932 90.3959C174.665 90.7381 174.531 91.168 174.531 91.6854V94.9404H172.891V88.5556ZM182.753 95.1407C181.977 95.1407 181.347 94.9822 180.863 94.665C180.387 94.3479 180.053 93.9347 179.861 93.4256L181.326 92.7871C181.459 93.0876 181.647 93.3171 181.889 93.4757C182.14 93.6259 182.428 93.701 182.753 93.701C183.053 93.701 183.304 93.6551 183.504 93.5633C183.704 93.4632 183.805 93.3046 183.805 93.0876C183.805 92.8789 183.713 92.7245 183.529 92.6244C183.346 92.5159 183.07 92.4199 182.703 92.3364L181.952 92.1737C181.434 92.0485 181.004 91.8231 180.662 91.4976C180.32 91.1638 180.149 90.7507 180.149 90.2582C180.149 89.891 180.258 89.5613 180.475 89.2692C180.7 88.9771 181 88.7518 181.376 88.5932C181.76 88.4346 182.181 88.3553 182.64 88.3553C183.959 88.3553 184.84 88.8185 185.282 89.7449L183.88 90.3584C183.629 89.9077 183.229 89.6824 182.678 89.6824C182.394 89.6824 182.169 89.7366 182.002 89.8451C181.835 89.9453 181.751 90.0746 181.751 90.2332C181.751 90.5337 182.035 90.759 182.603 90.9092L183.542 91.1346C184.176 91.2932 184.652 91.5352 184.969 91.8607C185.294 92.1862 185.457 92.5868 185.457 93.0625C185.457 93.4715 185.336 93.8346 185.094 94.1517C184.86 94.4605 184.535 94.7026 184.118 94.8778C183.709 95.0531 183.254 95.1407 182.753 95.1407Z" fill="#4F4F4F"/>
<path d="M134.177 119.532H140.241L150.765 147.543H144.936L142.589 140.853H131.869L129.522 147.543H123.692L134.177 119.532ZM140.867 136.002L138.402 128.96L137.385 125.596H137.072L136.055 128.96L133.551 136.002H140.867ZM159.946 148.169C157.834 148.169 156.099 147.556 154.743 146.331C153.387 145.079 152.709 143.449 152.709 141.44C152.709 140.11 153.061 138.936 153.765 137.919C154.469 136.902 155.434 136.12 156.66 135.572C157.886 135.024 159.242 134.75 160.729 134.75C162.789 134.75 164.55 135.05 166.01 135.65V134.789C166.01 133.694 165.593 132.807 164.758 132.129C163.95 131.451 162.855 131.112 161.472 131.112C160.533 131.112 159.62 131.334 158.734 131.777C157.873 132.194 157.156 132.755 156.582 133.459L153.296 130.877C154.261 129.625 155.473 128.66 156.934 127.982C158.395 127.304 159.986 126.965 161.707 126.965C164.758 126.965 167.08 127.669 168.671 129.078C170.262 130.486 171.057 132.546 171.057 135.259V147.543H166.01V145.509H165.697C165.098 146.292 164.302 146.931 163.311 147.426C162.346 147.922 161.224 148.169 159.946 148.169ZM161.159 144.179C162.646 144.179 163.82 143.709 164.68 142.771C165.567 141.805 166.01 140.684 166.01 139.406C164.68 138.78 163.285 138.467 161.824 138.467C159.164 138.467 157.834 139.458 157.834 141.44C157.834 142.249 158.121 142.914 158.694 143.436C159.268 143.931 160.09 144.179 161.159 144.179Z" fill="#F7F7F7"/>
<path d="M303.748 119.532H308.755L319.279 147.543H314.428L311.924 140.384H300.618L298.075 147.543H293.224L303.748 119.532ZM310.437 136.315L307.464 127.982L306.369 124.735H306.134L305.039 127.982L302.065 136.315H310.437ZM328.641 148.169C327.206 148.169 325.928 147.896 324.807 147.348C323.685 146.774 322.812 145.979 322.186 144.961C321.56 143.918 321.247 142.744 321.247 141.44C321.247 139.38 322.016 137.75 323.555 136.55C325.12 135.35 327.089 134.75 329.462 134.75C330.636 134.75 331.692 134.868 332.631 135.102C333.57 135.311 334.314 135.546 334.861 135.807V134.789C334.861 133.564 334.405 132.573 333.492 131.816C332.579 131.034 331.405 130.642 329.971 130.642C328.954 130.642 327.989 130.864 327.076 131.308C326.189 131.751 325.472 132.364 324.924 133.146L321.912 130.838C322.799 129.612 323.946 128.66 325.355 127.982C326.763 127.304 328.328 126.965 330.049 126.965C332.944 126.965 335.174 127.682 336.739 129.117C338.304 130.525 339.087 132.52 339.087 135.102V147.543H334.861V145.157H334.666C334.092 146.018 333.283 146.735 332.24 147.309C331.197 147.883 329.997 148.169 328.641 148.169ZM329.384 144.609C330.427 144.609 331.366 144.361 332.201 143.866C333.036 143.37 333.688 142.705 334.157 141.871C334.627 141.036 334.861 140.136 334.861 139.171C334.261 138.832 333.557 138.558 332.749 138.35C331.966 138.141 331.145 138.037 330.284 138.037C328.667 138.037 327.48 138.363 326.724 139.015C325.967 139.641 325.589 140.462 325.589 141.479C325.589 142.392 325.941 143.149 326.646 143.749C327.35 144.322 328.263 144.609 329.384 144.609Z" fill="#F7F7F7"/>
<path d="M476.486 119.532H480.242L490.883 147.543H487.245L484.428 139.836H472.339L469.522 147.543H465.884L476.486 119.532ZM483.293 136.706L479.577 126.613L478.442 123.6H478.286L477.19 126.613L473.473 136.706H483.293ZM500.309 148.169C498.849 148.169 497.545 147.883 496.397 147.309C495.25 146.735 494.363 145.952 493.737 144.961C493.111 143.944 492.798 142.797 492.798 141.519C492.798 139.406 493.593 137.763 495.184 136.589C496.775 135.389 498.784 134.789 501.209 134.789C502.409 134.789 503.518 134.92 504.535 135.181C505.578 135.442 506.373 135.741 506.921 136.081V134.868C506.921 133.381 506.4 132.194 505.356 131.308C504.313 130.395 502.996 129.938 501.405 129.938C500.283 129.938 499.253 130.186 498.314 130.682C497.375 131.151 496.632 131.816 496.084 132.677L493.58 130.799C494.363 129.599 495.432 128.66 496.788 127.982C498.171 127.304 499.697 126.965 501.366 126.965C504.078 126.965 506.204 127.682 507.743 129.117C509.308 130.525 510.09 132.455 510.09 134.907V147.543H506.921V144.688H506.765C506.191 145.653 505.33 146.474 504.183 147.152C503.035 147.83 501.744 148.169 500.309 148.169ZM500.622 145.235C501.744 145.235 502.787 144.948 503.752 144.375C504.717 143.801 505.487 143.031 506.06 142.066C506.634 141.101 506.921 140.045 506.921 138.897C506.295 138.48 505.526 138.141 504.613 137.88C503.7 137.619 502.735 137.489 501.718 137.489C499.892 137.489 498.51 137.867 497.571 138.624C496.658 139.38 496.202 140.358 496.202 141.558C496.202 142.653 496.619 143.54 497.454 144.218C498.288 144.896 499.344 145.235 500.622 145.235Z" fill="#F7F7F7"/>
<path d="M287.086 131.819H289.757L295.369 146.758H292.782L291.447 142.94H285.417L284.06 146.758H281.473L287.086 131.819ZM290.654 140.77L289.068 136.326L288.484 134.594H288.359L287.774 136.326L286.189 140.77H290.654ZM300.362 147.092C299.597 147.092 298.916 146.946 298.318 146.654C297.719 146.348 297.253 145.924 296.92 145.381C296.586 144.825 296.419 144.199 296.419 143.503C296.419 142.404 296.829 141.535 297.65 140.895C298.484 140.255 299.535 139.935 300.801 139.935C301.426 139.935 301.99 139.998 302.491 140.123C302.991 140.234 303.388 140.36 303.68 140.499V139.956C303.68 139.302 303.437 138.774 302.95 138.37C302.463 137.953 301.837 137.744 301.072 137.744C300.529 137.744 300.015 137.863 299.528 138.099C299.055 138.336 298.672 138.663 298.38 139.08L296.773 137.849C297.246 137.195 297.858 136.687 298.61 136.326C299.361 135.964 300.195 135.783 301.113 135.783C302.658 135.783 303.847 136.166 304.681 136.931C305.516 137.682 305.933 138.746 305.933 140.123V146.758H303.68V145.486H303.576C303.27 145.945 302.838 146.327 302.282 146.633C301.726 146.939 301.086 147.092 300.362 147.092ZM300.759 145.193C301.315 145.193 301.816 145.061 302.261 144.797C302.706 144.533 303.054 144.178 303.304 143.733C303.555 143.288 303.68 142.808 303.68 142.293C303.36 142.112 302.984 141.966 302.553 141.855C302.136 141.744 301.698 141.688 301.239 141.688C300.376 141.688 299.743 141.862 299.34 142.21C298.937 142.543 298.735 142.982 298.735 143.524C298.735 144.011 298.923 144.414 299.298 144.734C299.674 145.04 300.161 145.193 300.759 145.193Z" fill="#7CCBCD"/>
<path d="M459.268 131.819H461.271L466.947 146.758H465.006L463.504 142.648H457.057L455.554 146.758H453.614L459.268 131.819ZM462.899 140.979L460.917 135.595L460.312 133.989H460.228L459.644 135.595L457.662 140.979H462.899ZM471.974 147.092C471.195 147.092 470.5 146.939 469.888 146.633C469.276 146.327 468.803 145.91 468.469 145.381C468.135 144.839 467.968 144.227 467.968 143.545C467.968 142.418 468.392 141.542 469.241 140.916C470.089 140.276 471.16 139.956 472.454 139.956C473.094 139.956 473.685 140.026 474.228 140.165C474.784 140.304 475.208 140.464 475.5 140.645V139.998C475.5 139.205 475.222 138.572 474.666 138.099C474.109 137.612 473.407 137.369 472.558 137.369C471.96 137.369 471.411 137.501 470.91 137.765C470.409 138.016 470.013 138.37 469.721 138.829L468.385 137.828C468.803 137.188 469.373 136.687 470.096 136.326C470.834 135.964 471.647 135.783 472.538 135.783C473.984 135.783 475.118 136.166 475.939 136.931C476.773 137.682 477.191 138.711 477.191 140.019V146.758H475.5V145.235H475.417C475.111 145.75 474.652 146.188 474.04 146.55C473.428 146.911 472.739 147.092 471.974 147.092ZM472.141 145.527C472.739 145.527 473.296 145.374 473.81 145.068C474.325 144.762 474.735 144.352 475.041 143.837C475.347 143.322 475.5 142.759 475.5 142.147C475.167 141.924 474.756 141.744 474.269 141.605C473.782 141.465 473.268 141.396 472.725 141.396C471.752 141.396 471.014 141.598 470.514 142.001C470.027 142.404 469.783 142.926 469.783 143.566C469.783 144.15 470.006 144.623 470.451 144.985C470.896 145.346 471.459 145.527 472.141 145.527Z" fill="#7CCBCD"/>
<path d="M117.012 131.819H120.246L125.859 146.758H122.75L121.498 143.19H115.781L114.529 146.758H111.42L117.012 131.819ZM120.58 140.603L119.266 136.847L118.723 135.053H118.556L118.014 136.847L116.678 140.603H120.58ZM130.756 147.092C129.629 147.092 128.704 146.765 127.981 146.111C127.258 145.444 126.896 144.574 126.896 143.503C126.896 142.794 127.084 142.168 127.459 141.625C127.835 141.083 128.349 140.666 129.003 140.373C129.657 140.081 130.38 139.935 131.173 139.935C132.272 139.935 133.211 140.095 133.99 140.415V139.956C133.99 139.372 133.768 138.899 133.322 138.537C132.891 138.176 132.307 137.995 131.57 137.995C131.069 137.995 130.582 138.113 130.109 138.35C129.65 138.572 129.268 138.871 128.962 139.247L127.209 137.87C127.723 137.202 128.37 136.687 129.149 136.326C129.928 135.964 130.777 135.783 131.695 135.783C133.322 135.783 134.56 136.159 135.409 136.91C136.257 137.661 136.682 138.76 136.682 140.207V146.758H133.99V145.673H133.823C133.503 146.091 133.079 146.431 132.55 146.696C132.036 146.96 131.438 147.092 130.756 147.092ZM131.403 144.964C132.196 144.964 132.822 144.713 133.281 144.213C133.754 143.698 133.99 143.1 133.99 142.418C133.281 142.084 132.536 141.918 131.757 141.918C130.339 141.918 129.629 142.446 129.629 143.503C129.629 143.935 129.782 144.289 130.088 144.567C130.394 144.832 130.832 144.964 131.403 144.964Z" fill="#7CCBCD"/>
<path d="M112.177 160.154H115.828C116.35 160.154 116.828 160.263 117.263 160.48C117.706 160.697 118.054 160.993 118.306 161.367C118.558 161.741 118.684 162.149 118.684 162.593C118.684 163.062 118.567 163.471 118.332 163.818C118.106 164.157 117.806 164.418 117.432 164.601V164.705C117.919 164.879 118.306 165.157 118.593 165.54C118.88 165.914 119.023 166.366 119.023 166.896C119.023 167.409 118.884 167.865 118.606 168.265C118.336 168.657 117.967 168.961 117.497 169.178C117.037 169.387 116.524 169.491 115.959 169.491H112.177V160.154ZM115.698 163.962C116.08 163.962 116.385 163.858 116.611 163.649C116.845 163.432 116.963 163.162 116.963 162.84C116.963 162.527 116.85 162.267 116.624 162.058C116.406 161.841 116.115 161.732 115.75 161.732H113.937V163.962H115.698ZM115.893 167.887C116.319 167.887 116.65 167.779 116.885 167.561C117.128 167.335 117.25 167.044 117.25 166.687C117.25 166.331 117.128 166.04 116.885 165.814C116.641 165.588 116.293 165.475 115.841 165.475H113.937V167.887H115.893ZM123.567 169.7C122.881 169.7 122.268 169.548 121.729 169.243C121.19 168.93 120.768 168.509 120.464 167.978C120.168 167.439 120.02 166.835 120.02 166.166C120.02 165.505 120.168 164.905 120.464 164.366C120.768 163.827 121.19 163.405 121.729 163.101C122.268 162.788 122.881 162.632 123.567 162.632C124.246 162.632 124.854 162.788 125.393 163.101C125.932 163.405 126.35 163.827 126.645 164.366C126.949 164.905 127.102 165.505 127.102 166.166C127.102 166.835 126.949 167.439 126.645 167.978C126.35 168.509 125.932 168.93 125.393 169.243C124.854 169.548 124.246 169.7 123.567 169.7ZM123.567 168.122C123.898 168.122 124.202 168.044 124.48 167.887C124.759 167.731 124.98 167.505 125.145 167.209C125.311 166.913 125.393 166.566 125.393 166.166C125.393 165.775 125.311 165.431 125.145 165.136C124.98 164.84 124.759 164.614 124.48 164.457C124.202 164.301 123.898 164.223 123.567 164.223C123.237 164.223 122.933 164.301 122.655 164.457C122.376 164.614 122.15 164.84 121.976 165.136C121.811 165.431 121.729 165.775 121.729 166.166C121.729 166.557 121.811 166.905 121.976 167.209C122.15 167.505 122.376 167.731 122.655 167.887C122.933 168.044 123.237 168.122 123.567 168.122ZM128.345 160.154H130.053V169.491H128.345V160.154ZM134.525 169.7C133.925 169.7 133.377 169.552 132.882 169.256C132.395 168.952 132.008 168.535 131.721 168.005C131.443 167.466 131.304 166.853 131.304 166.166C131.304 165.488 131.443 164.879 131.721 164.34C132.008 163.801 132.395 163.384 132.882 163.088C133.377 162.784 133.925 162.632 134.525 162.632C134.977 162.632 135.377 162.732 135.725 162.932C136.072 163.123 136.338 163.362 136.52 163.649H136.624L136.52 162.71V160.154H138.215V169.491H136.624V168.696H136.52C136.346 168.983 136.081 169.222 135.725 169.413C135.377 169.604 134.977 169.7 134.525 169.7ZM134.812 168.122C135.133 168.122 135.433 168.039 135.712 167.874C135.99 167.709 136.211 167.479 136.377 167.183C136.542 166.887 136.624 166.548 136.624 166.166C136.624 165.783 136.542 165.444 136.377 165.149C136.211 164.853 135.99 164.627 135.712 164.47C135.433 164.305 135.133 164.223 134.812 164.223C134.499 164.223 134.203 164.305 133.925 164.47C133.647 164.627 133.425 164.853 133.26 165.149C133.095 165.444 133.012 165.783 133.012 166.166C133.012 166.548 133.095 166.887 133.26 167.183C133.425 167.479 133.647 167.709 133.925 167.874C134.203 168.039 134.499 168.122 134.812 168.122Z" fill="#4F4F4F"/>
<path d="M282.23 160.154H284.212L286.898 167.235H286.976L289.663 160.154H291.645V169.491H290.197V164.262L290.276 162.58H290.197L287.524 169.491H286.35L283.677 162.58H283.599L283.677 164.262V169.491H282.23V160.154ZM296.584 169.7C295.932 169.7 295.345 169.548 294.824 169.243C294.311 168.939 293.906 168.522 293.611 167.992C293.324 167.452 293.18 166.848 293.18 166.179C293.18 165.544 293.32 164.957 293.598 164.418C293.885 163.871 294.28 163.436 294.784 163.114C295.289 162.793 295.863 162.632 296.506 162.632C297.175 162.632 297.753 162.78 298.24 163.075C298.736 163.371 299.11 163.775 299.362 164.288C299.623 164.801 299.753 165.379 299.753 166.022C299.753 166.144 299.74 166.296 299.714 166.479H294.615C294.667 167.096 294.884 167.574 295.267 167.913C295.658 168.244 296.11 168.409 296.623 168.409C297.032 168.409 297.384 168.318 297.68 168.135C297.984 167.944 298.227 167.687 298.41 167.366L299.623 167.939C299.31 168.487 298.901 168.917 298.397 169.23C297.893 169.543 297.288 169.7 296.584 169.7ZM298.292 165.383C298.275 165.149 298.201 164.918 298.071 164.692C297.94 164.457 297.74 164.262 297.471 164.105C297.21 163.949 296.888 163.871 296.506 163.871C296.045 163.871 295.654 164.01 295.332 164.288C295.019 164.557 294.802 164.923 294.68 165.383H298.292ZM303.966 169.7C303.366 169.7 302.823 169.548 302.336 169.243C301.849 168.939 301.462 168.522 301.175 167.992C300.897 167.452 300.758 166.844 300.758 166.166C300.758 165.488 300.897 164.883 301.175 164.353C301.462 163.814 301.849 163.392 302.336 163.088C302.823 162.784 303.366 162.632 303.966 162.632C304.435 162.632 304.857 162.736 305.231 162.945C305.605 163.153 305.887 163.41 306.079 163.714H306.144L306.079 162.775V160.154H307.513V169.491H306.144V168.631H306.079C305.887 168.926 305.605 169.178 305.231 169.387C304.857 169.596 304.435 169.7 303.966 169.7ZM304.175 168.383C304.522 168.383 304.844 168.291 305.14 168.109C305.444 167.926 305.687 167.665 305.87 167.326C306.053 166.987 306.144 166.6 306.144 166.166C306.144 165.731 306.053 165.349 305.87 165.018C305.687 164.679 305.444 164.418 305.14 164.236C304.844 164.053 304.522 163.962 304.175 163.962C303.827 163.962 303.501 164.053 303.197 164.236C302.892 164.418 302.649 164.679 302.466 165.018C302.284 165.349 302.192 165.731 302.192 166.166C302.192 166.6 302.284 166.987 302.466 167.326C302.649 167.665 302.892 167.926 303.197 168.109C303.501 168.291 303.827 168.383 304.175 168.383ZM310.006 161.875C309.737 161.875 309.506 161.784 309.315 161.601C309.132 161.41 309.041 161.18 309.041 160.91C309.041 160.641 309.132 160.415 309.315 160.232C309.506 160.041 309.737 159.945 310.006 159.945C310.276 159.945 310.502 160.041 310.684 160.232C310.875 160.415 310.971 160.641 310.971 160.91C310.971 161.18 310.875 161.41 310.684 161.601C310.502 161.784 310.276 161.875 310.006 161.875ZM309.289 162.84H310.723V169.491H309.289V162.84ZM314.934 169.7C314.125 169.7 313.508 169.461 313.082 168.983C312.665 168.496 312.456 167.822 312.456 166.961V162.84H313.891V166.766C313.891 167.305 314.017 167.709 314.269 167.978C314.53 168.248 314.869 168.383 315.286 168.383C315.625 168.383 315.925 168.296 316.186 168.122C316.447 167.939 316.647 167.7 316.786 167.405C316.925 167.109 316.994 166.792 316.994 166.453V162.84H318.429V169.491H317.073V168.631H316.994C316.812 168.943 316.529 169.2 316.147 169.4C315.764 169.6 315.36 169.7 314.934 169.7ZM320.099 162.84H321.468V163.714H321.533C321.733 163.392 322.016 163.132 322.381 162.932C322.746 162.732 323.137 162.632 323.554 162.632C324.033 162.632 324.45 162.745 324.806 162.971C325.163 163.188 325.419 163.479 325.576 163.845C325.802 163.479 326.102 163.188 326.476 162.971C326.858 162.745 327.306 162.632 327.819 162.632C328.584 162.632 329.162 162.866 329.553 163.336C329.953 163.797 330.153 164.427 330.153 165.227V169.491H328.719V165.475C328.719 164.466 328.288 163.962 327.428 163.962C326.967 163.962 326.589 164.149 326.293 164.523C325.997 164.896 325.85 165.357 325.85 165.905V169.491H324.415V165.475C324.415 164.466 323.972 163.962 323.085 163.962C322.633 163.962 322.259 164.149 321.963 164.523C321.676 164.896 321.533 165.357 321.533 165.905V169.491H320.099V162.84Z" fill="#4F4F4F"/>
<path d="M456.951 160.154H460.107C460.62 160.154 461.098 160.271 461.542 160.506C461.985 160.741 462.337 161.071 462.598 161.497C462.868 161.914 463.002 162.388 463.002 162.919C463.002 163.353 462.902 163.758 462.702 164.131C462.511 164.505 462.242 164.818 461.894 165.07C461.555 165.322 461.177 165.492 460.759 165.579L460.733 165.618L463.368 169.439V169.491H462.063L459.521 165.683H458.047V169.491H456.951V160.154ZM460.042 164.653C460.364 164.653 460.664 164.579 460.942 164.431C461.229 164.284 461.455 164.079 461.62 163.818C461.794 163.549 461.881 163.249 461.881 162.919C461.881 162.632 461.807 162.358 461.659 162.097C461.511 161.836 461.303 161.623 461.033 161.458C460.772 161.293 460.468 161.21 460.12 161.21H458.047V164.653H460.042ZM467.204 169.7C466.569 169.7 466 169.548 465.495 169.243C464.991 168.939 464.596 168.522 464.309 167.992C464.031 167.452 463.891 166.848 463.891 166.179C463.891 165.535 464.022 164.944 464.283 164.405C464.552 163.866 464.93 163.436 465.417 163.114C465.904 162.793 466.469 162.632 467.113 162.632C467.765 162.632 468.33 162.78 468.808 163.075C469.286 163.362 469.651 163.762 469.903 164.275C470.164 164.788 470.295 165.375 470.295 166.035C470.295 166.166 470.281 166.279 470.255 166.374H465C465.026 166.879 465.148 167.305 465.365 167.652C465.582 168 465.856 168.261 466.187 168.435C466.526 168.609 466.878 168.696 467.243 168.696C468.095 168.696 468.751 168.296 469.212 167.496L470.151 167.952C469.864 168.491 469.473 168.917 468.977 169.23C468.491 169.543 467.899 169.7 467.204 169.7ZM469.121 165.462C469.103 165.183 469.025 164.905 468.886 164.627C468.747 164.349 468.525 164.114 468.221 163.923C467.925 163.731 467.552 163.636 467.1 163.636C466.578 163.636 466.134 163.805 465.769 164.144C465.413 164.475 465.178 164.914 465.065 165.462H469.121ZM474.577 172.517C473.794 172.517 473.146 172.334 472.634 171.969C472.129 171.604 471.79 171.165 471.616 170.652L472.62 170.221C472.768 170.604 473.012 170.913 473.351 171.147C473.699 171.391 474.107 171.513 474.577 171.513C475.263 171.513 475.794 171.313 476.168 170.913C476.55 170.513 476.741 169.948 476.741 169.217V168.474H476.689C476.472 168.813 476.163 169.091 475.763 169.309C475.372 169.517 474.924 169.622 474.42 169.622C473.846 169.622 473.32 169.474 472.842 169.178C472.373 168.883 471.999 168.47 471.721 167.939C471.442 167.409 471.303 166.805 471.303 166.127C471.303 165.457 471.442 164.857 471.721 164.327C471.999 163.788 472.373 163.371 472.842 163.075C473.32 162.78 473.846 162.632 474.42 162.632C474.924 162.632 475.372 162.74 475.763 162.958C476.163 163.166 476.472 163.445 476.689 163.792H476.741V162.84H477.798V169.23C477.798 170.3 477.502 171.113 476.911 171.669C476.32 172.234 475.542 172.517 474.577 172.517ZM474.577 168.617C474.977 168.617 475.337 168.517 475.659 168.318C475.989 168.118 476.25 167.831 476.441 167.457C476.641 167.083 476.741 166.64 476.741 166.127C476.741 165.605 476.641 165.157 476.441 164.783C476.25 164.41 475.989 164.127 475.659 163.936C475.337 163.736 474.977 163.636 474.577 163.636C474.177 163.636 473.812 163.736 473.481 163.936C473.151 164.136 472.886 164.423 472.686 164.796C472.494 165.17 472.399 165.614 472.399 166.127C472.399 166.64 472.494 167.087 472.686 167.47C472.886 167.844 473.151 168.131 473.481 168.331C473.812 168.522 474.177 168.617 474.577 168.617ZM481.786 169.7C480.986 169.7 480.373 169.465 479.947 168.996C479.529 168.526 479.321 167.87 479.321 167.026V162.84H480.429V166.857C480.429 167.492 480.573 167.957 480.86 168.252C481.147 168.548 481.533 168.696 482.02 168.696C482.394 168.696 482.725 168.596 483.011 168.396C483.307 168.196 483.533 167.935 483.69 167.613C483.855 167.292 483.937 166.953 483.937 166.596V162.84H485.046V169.491H483.989V168.526H483.937C483.755 168.857 483.463 169.135 483.064 169.361C482.664 169.587 482.238 169.7 481.786 169.7ZM486.683 160.154H487.791V169.491H486.683V160.154ZM491.496 169.7C491.009 169.7 490.574 169.604 490.192 169.413C489.809 169.222 489.514 168.961 489.305 168.631C489.096 168.291 488.992 167.909 488.992 167.483C488.992 166.779 489.257 166.231 489.787 165.84C490.318 165.44 490.987 165.24 491.796 165.24C492.196 165.24 492.565 165.283 492.904 165.37C493.252 165.457 493.517 165.557 493.7 165.67V165.266C493.7 164.77 493.526 164.375 493.178 164.079C492.83 163.775 492.391 163.623 491.861 163.623C491.487 163.623 491.144 163.705 490.831 163.871C490.518 164.027 490.27 164.249 490.087 164.536L489.253 163.91C489.514 163.51 489.87 163.197 490.322 162.971C490.783 162.745 491.292 162.632 491.848 162.632C492.752 162.632 493.461 162.871 493.974 163.349C494.495 163.818 494.756 164.462 494.756 165.279V169.491H493.7V168.539H493.648C493.456 168.861 493.169 169.135 492.787 169.361C492.404 169.587 491.974 169.7 491.496 169.7ZM491.6 168.722C491.974 168.722 492.322 168.626 492.643 168.435C492.965 168.244 493.222 167.987 493.413 167.665C493.604 167.344 493.7 166.992 493.7 166.609C493.491 166.47 493.235 166.357 492.93 166.27C492.626 166.183 492.304 166.14 491.965 166.14C491.357 166.14 490.896 166.266 490.583 166.518C490.279 166.77 490.127 167.096 490.127 167.496C490.127 167.861 490.266 168.157 490.544 168.383C490.822 168.609 491.174 168.722 491.6 168.722ZM496.298 162.84H497.354V163.91H497.407C497.537 163.545 497.789 163.245 498.163 163.01C498.537 162.766 498.928 162.645 499.337 162.645C499.641 162.645 499.902 162.688 500.119 162.775V163.975C499.841 163.836 499.528 163.766 499.18 163.766C498.858 163.766 498.563 163.858 498.293 164.04C498.024 164.223 497.806 164.47 497.641 164.783C497.485 165.088 497.407 165.418 497.407 165.775V169.491H496.298V162.84Z" fill="#4F4F4F"/>
</svg>
